<svg width="10" height="18" viewBox="0 0 10 18" fill="none" xmlns="http://www.w3.org/2000/svg">
<path d="M9.34201 0.182961L7.08946 0.179291C4.5588 0.179291 2.92338 1.88336 2.92338 4.52087V6.52263H0.658543C0.462834 6.52263 0.304352 6.68377 0.304352 6.88253V9.78285C0.304352 9.98161 0.463015 10.1426 0.658543 10.1426H2.92338V17.461C2.92338 17.6598 3.08186 17.8207 3.27757 17.8207H6.23253C6.42824 17.8207 6.58673 17.6596 6.58673 17.461V10.1426H9.23485C9.43056 10.1426 9.58904 9.98161 9.58904 9.78285L9.59012 6.88253C9.59012 6.78709 9.55271 6.6957 9.48639 6.62816C9.42007 6.56062 9.32972 6.52263 9.23575 6.52263H6.58673V4.82571C6.58673 4.01011 6.7781 3.59606 7.82423 3.59606L9.34165 3.59551C9.53717 3.59551 9.69566 3.43437 9.69566 3.23579V0.54268C9.69566 0.344284 9.53735 0.183328 9.34201 0.182961Z" fill="black"/>
</svg>
