<svg width="10" height="18" viewBox="0 0 10 18" fill="none" xmlns="http://www.w3.org/2000/svg">
<path d="M9.34234 0.18287L7.0898 0.179199C4.55914 0.179199 2.92371 1.88327 2.92371 4.52078V6.52254H0.658879C0.46317 6.52254 0.304688 6.68368 0.304688 6.88244V9.78276C0.304688 9.98152 0.463351 10.1425 0.658879 10.1425H2.92371V17.4609C2.92371 17.6597 3.0822 17.8206 3.2779 17.8206H6.23287C6.42858 17.8206 6.58706 17.6595 6.58706 17.4609V10.1425H9.23518C9.43089 10.1425 9.58937 9.98152 9.58937 9.78276L9.59046 6.88244C9.59046 6.787 9.55305 6.69561 9.48673 6.62807C9.42041 6.56053 9.33005 6.52254 9.23608 6.52254H6.58706V4.82562C6.58706 4.01002 6.77843 3.59597 7.82456 3.59597L9.34198 3.59542C9.53751 3.59542 9.69599 3.43428 9.69599 3.2357V0.542588C9.69599 0.344192 9.53769 0.183237 9.34234 0.18287Z" fill="black"/>
</svg>
