<svg width="21" height="19" viewBox="0 0 21 19" fill="none" xmlns="http://www.w3.org/2000/svg">
<path d="M14.6002 0C11.5444 0.00551581 9.07018 2.48424 9.07019 5.54H11.0702C11.0702 3.59043 12.6506 2.01 14.6002 2.01C16.5498 2.01 18.1302 3.59043 18.1302 5.54C18.1302 10.41 11.9102 15.02 10.1302 16.26C8.32019 15.02 2.13019 10.41 2.13019 5.54C2.12981 3.61193 3.67249 2.03813 5.60019 2C6.49891 2.0128 7.35827 2.37087 8.00019 3C8.25169 2.37357 8.58818 1.78471 9.00019 1.25C7.34103 -0.0976207 5.053 -0.366241 3.12683 0.560457C1.20067 1.48715 -0.0173521 3.44258 0.000186915 5.58C0.0701869 12.31 9.13019 18 9.54019 18.28L10.1002 18.61L10.6602 18.28C11.0502 18.04 20.1302 12.28 20.1302 5.53C20.1247 2.47815 17.652 0.0055038 14.6002 0Z" fill="#2B2D33"/>
</svg>
