<svg width="12" height="20" viewBox="0 0 12 20" fill="none" xmlns="http://www.w3.org/2000/svg">
<path d="M6.00003 12.5862L10 16.5862L10 2.0004H12L12 18.759C12 19.3665 11.5075 19.859 10.9 19.859C10.6083 19.859 10.3285 19.7431 10.1222 19.5368L6.00003 15.4146L1.87785 19.5368C1.44827 19.9664 0.751787 19.9664 0.322211 19.5368C0.11592 19.3305 2.79524e-05 19.0507 2.79651e-05 18.759L2.86102e-05 2.0004H2.00003L2.00003 16.5862L6.00003 12.5862Z" fill="#2B2D33"/>
<path d="M2 0H10C11.1046 0 12 0.895829 12 2.0004L12 3H10L10 2.0004L2.00003 2.0004L2 3H0L2.86102e-05 2.0004C2.86102e-05 0.895829 0.89543 0 2 0Z" fill="#2B2D33"/>
</svg>
