<svg width="18" height="14" viewBox="0 0 18 14" fill="none" xmlns="http://www.w3.org/2000/svg">
<path d="M6.7152 14C5.93683 14 5.13566 13.9401 4.32968 13.82C2.91012 13.6084 1.47312 12.9027 1.06649 12.6914L0 12.1373L1.15465 11.7764C2.41684 11.3821 3.18464 11.1374 4.13509 10.7542C3.1834 10.3162 2.44993 9.52835 2.09686 8.50988L1.82825 7.73493L2.04852 7.76691C1.83965 7.56684 1.67472 7.36378 1.54686 7.17911C1.09217 6.5228 0.851434 5.72084 0.902657 5.03359L0.953194 4.35718L1.37932 4.51405C1.19956 4.19144 1.06965 3.8469 0.993294 3.48579C0.807214 2.60514 0.962944 1.66954 1.43192 0.851401L1.80312 0.203831L2.29956 0.770487C3.86963 2.56286 5.85828 3.62609 8.21853 3.93734C8.12213 3.30583 8.19436 2.69636 8.43345 2.15006C8.71182 1.51398 9.20702 0.974599 9.8651 0.590128C10.596 0.163244 11.4823 -0.0436083 12.3608 0.00768054C13.2928 0.0621015 14.139 0.393978 14.8111 0.968073C15.1393 0.887029 15.3812 0.800504 15.708 0.683571C15.9046 0.613228 16.1277 0.533358 16.4067 0.442004L17.435 0.105299L16.7645 1.92533C16.8087 1.92181 16.8543 1.91881 16.9019 1.91685L18 1.86961L17.351 2.71255C17.3138 2.76083 17.3043 2.77454 17.2911 2.79346C17.2388 2.86837 17.1737 2.96155 16.2829 4.09199C16.0598 4.37506 15.9485 4.74374 15.9692 5.1303C16.0482 6.59927 15.8585 7.92834 15.4052 9.08045C14.9764 10.1704 14.3121 11.1056 13.4307 11.8601C12.34 12.7935 10.9493 13.4326 9.29697 13.7593C8.48646 13.9196 7.61608 14 6.7152 14Z" fill="black"/>
</svg>
