<svg width="22" height="12" viewBox="0 0 22 12" fill="none" xmlns="http://www.w3.org/2000/svg">
<path d="M21.7205 10.7032C21.6616 10.6086 21.2973 9.84878 19.5439 8.28709C17.7083 6.65178 17.9548 6.91732 20.1658 4.0897C21.5123 2.36763 22.0507 1.31598 21.8822 0.866405C21.7219 0.437859 20.7315 0.550911 20.7315 0.550911L17.4384 0.569315C17.4384 0.569315 17.1946 0.537766 17.0124 0.641616C16.8357 0.744151 16.722 0.980772 16.722 0.980772C16.722 0.980772 16.2001 2.31373 15.5042 3.44688C14.0371 5.83806 13.4494 5.96426 13.2097 5.81572C12.6522 5.46999 12.7919 4.42491 12.7919 3.6835C12.7919 1.36594 13.1577 0.399737 12.0782 0.149971C11.7193 0.0671538 11.4563 0.0119424 10.5399 0.00274048C9.36456 -0.00909055 8.36868 0.00668415 7.80567 0.27091C7.43034 0.447061 7.1413 0.840114 7.31801 0.862462C7.53581 0.890068 8.02896 0.989974 8.2906 1.33176C8.62895 1.77214 8.61662 2.76331 8.61662 2.76331C8.61662 2.76331 8.81114 5.49102 8.1632 5.83018C7.718 6.06285 7.10842 5.5883 5.80022 3.41796C5.13037 2.30716 4.62353 1.07805 4.62353 1.07805C4.62353 1.07805 4.52627 0.849316 4.3523 0.727062C4.14134 0.578517 3.84546 0.531193 3.84546 0.531193L0.713994 0.549597C0.713994 0.549597 0.244138 0.562743 0.0715377 0.758612C-0.0818848 0.933448 0.0592091 1.29364 0.0592091 1.29364C0.0592091 1.29364 2.51123 6.79769 5.28653 9.57272C7.83307 12.1164 10.7234 11.9494 10.7234 11.9494H12.033C12.033 11.9494 12.4289 11.9074 12.6303 11.6984C12.8166 11.5064 12.8097 11.1463 12.8097 11.1463C12.8097 11.1463 12.7837 9.45967 13.6001 9.21122C14.4042 8.96671 15.4371 10.8413 16.5316 11.563C17.359 12.1085 17.9877 11.9889 17.9877 11.9889L20.9151 11.9494C20.9151 11.9494 22.4466 11.8587 21.7205 10.7032Z" fill="black"/>
</svg>
