<svg width="36" height="36" viewBox="0 0 36 36" fill="none" xmlns="http://www.w3.org/2000/svg">
<path d="M35.5369 18.5313C35.5384 17.3131 35.4354 16.0971 35.229 14.8965H18.3711V21.7812H28.0265C27.829 22.8808 27.4108 23.929 26.7972 24.8626C26.1836 25.7962 25.3873 26.5959 24.4563 27.2135V31.6825H30.2188C33.5929 28.5716 35.5369 23.971 35.5369 18.5313Z" fill="#4285F4"/>
<path d="M18.372 36C23.196 36 27.2578 34.416 30.2197 31.685L24.4572 27.216C22.8534 28.3035 20.7877 28.9241 18.372 28.9241C13.7094 28.9241 9.75184 25.781 8.33667 21.5454H2.40039V26.1509C3.88823 29.1115 6.16966 31.6004 8.98998 33.3396C11.8103 35.0788 15.0585 35.9999 18.372 36Z" fill="#34A853"/>
<path d="M8.33583 21.5454C7.58768 19.3259 7.58768 16.9224 8.33583 14.7029V10.0974H2.39955C1.14794 12.588 0.496094 15.3367 0.496094 18.1241C0.496094 20.9115 1.14794 23.6603 2.39955 26.1509L8.33583 21.5454Z" fill="#FBBC04"/>
<path d="M18.372 7.32414C20.9212 7.28249 23.3845 8.24568 25.2294 10.0055L30.3314 4.90345C27.0962 1.86474 22.8102 0.196436 18.372 0.248274C15.0585 0.248425 11.8103 1.16951 8.98998 2.9087C6.16966 4.6479 3.88823 7.13674 2.40039 10.0974L8.33667 14.7029C9.75184 10.4673 13.7094 7.32414 18.372 7.32414Z" fill="#EA4335"/>
</svg>
