<svg width="36" height="36" viewBox="0 0 36 36" fill="none" xmlns="http://www.w3.org/2000/svg">
<path d="M11.3213 32.6289C24.9062 32.6289 32.3366 21.3739 32.3366 11.6136C32.3366 11.2939 32.3366 10.9757 32.315 10.6589C33.7606 9.6133 35.0084 8.31869 36 6.83567C34.652 7.43298 33.222 7.8247 31.7578 7.99775C33.2996 7.07468 34.4536 5.62286 35.005 3.91247C33.5551 4.7728 31.9689 5.37913 30.3149 5.70527C29.2013 4.52113 27.7284 3.73703 26.1243 3.47429C24.5201 3.21156 22.8741 3.48484 21.441 4.25185C20.0078 5.01885 18.8673 6.23683 18.1961 7.71729C17.5249 9.19775 17.3603 10.8582 17.7278 12.4416C14.7913 12.2944 11.9186 11.5313 9.29612 10.2018C6.67366 8.87233 4.36009 7.00623 2.5056 4.72463C1.56109 6.35062 1.27181 8.27547 1.69665 10.1073C2.12149 11.9391 3.22851 13.5401 4.79232 14.5843C3.61691 14.5495 2.46712 14.2324 1.44 13.6598C1.44 13.6901 1.44 13.7217 1.44 13.7534C1.44047 15.4587 2.03078 17.1113 3.11081 18.431C4.19084 19.7506 5.69409 20.6561 7.3656 20.9937C6.27821 21.2903 5.13732 21.3337 4.03056 21.1205C4.50253 22.5881 5.4214 23.8715 6.65866 24.7911C7.89592 25.7108 9.38968 26.2208 10.931 26.2498C8.31562 28.3053 5.08473 29.4211 1.75824 29.4178C1.17058 29.4166 0.583494 29.381 0 29.3112C3.37772 31.4788 7.30787 32.6285 11.3213 32.6232" fill="#1DA1F2"/>
</svg>
