<svg width="36" height="36" viewBox="0 0 36 36" fill="none" xmlns="http://www.w3.org/2000/svg">
<path fill-rule="evenodd" clip-rule="evenodd" d="M12.4742 0H23.5258C33.6119 0 36 2.38814 36 12.4742V23.5258C36 33.6119 33.6119 36 23.5258 36H12.4742C2.38814 36 0 33.6119 0 23.5258V12.4742C0 2.38814 2.38814 0 12.4742 0Z" fill="#4680C2"/>
<path fill-rule="evenodd" clip-rule="evenodd" d="M29.471 12.398C29.6488 11.8391 29.471 11.4326 28.6834 11.4326H26.0666C25.4061 11.4326 25.1012 11.7883 24.9234 12.1694C24.9234 12.1694 23.5769 15.4213 21.6968 17.53C21.0871 18.1397 20.8076 18.343 20.4774 18.343C20.2995 18.343 20.0709 18.1397 20.0709 17.5808V12.3726C20.0709 11.7121 19.8676 11.4072 19.3087 11.4072H15.193C14.7865 11.4072 14.5324 11.7121 14.5324 12.0169C14.5324 12.6521 15.4724 12.8045 15.574 14.5829V18.4446C15.574 19.283 15.4216 19.4354 15.0913 19.4354C14.2021 19.4354 12.0426 16.1581 10.7469 12.4234C10.4929 11.6867 10.2388 11.4072 9.57828 11.4072H6.93608C6.1739 11.4072 6.04688 11.7629 6.04688 12.144C6.04688 12.8299 6.93608 16.2851 10.188 20.8581C12.3475 23.9831 15.4216 25.6598 18.1908 25.6598C19.8676 25.6598 20.0709 25.2788 20.0709 24.6436V22.2809C20.0709 21.5187 20.2233 21.3917 20.7568 21.3917C21.1379 21.3917 21.8239 21.5949 23.3736 23.0939C25.152 24.8723 25.4569 25.6852 26.4477 25.6852H29.0645C29.8267 25.6852 30.1824 25.3042 29.9791 24.5674C29.7505 23.8306 28.8867 22.7636 27.7688 21.4933C27.1591 20.7819 26.2445 19.9944 25.965 19.6133C25.5839 19.1051 25.6855 18.9019 25.965 18.4446C25.9396 18.4446 29.1407 13.9224 29.471 12.398Z" fill="white"/>
</svg>
