<svg width="95" height="19" viewBox="0 0 95 19" fill="none" xmlns="http://www.w3.org/2000/svg">
<path d="M4.952 18V11.664H6.56L11.168 18H14.6V16.128L10.448 10.68C12.488 9.72 13.688 7.944 13.688 5.736C13.688 2.232 11.048 -1.43051e-06 6.872 -1.43051e-06H0.968V18H4.952ZM4.88 8.448V3.384H6.848C8.672 3.384 9.704 4.392 9.704 5.784C9.704 7.392 8.624 8.448 6.848 8.448H4.88ZM16.1894 12.072H23.0294V9.12H16.1894V12.072ZM34.1731 14.184H36.8371L40.8691 5.712V18H44.8291V-1.43051e-06H39.9571L35.6851 9.168L31.3171 -1.43051e-06H26.4211V18H30.1651V5.712L34.1731 14.184ZM54.1811 18.36C58.5011 18.36 59.6771 15.96 59.6771 15.96V14.352H56.8451C56.8451 14.352 56.4131 15.456 54.2531 15.456C52.4771 15.456 51.5171 14.4 51.3011 12.768H59.7491C59.7491 12.768 59.9171 12.072 59.9171 11.232C59.9171 7.992 58.1411 5.52 54.0371 5.52C49.9571 5.52 47.6531 8.424 47.6531 11.976C47.6531 15.576 49.8131 18.36 54.1811 18.36ZM51.3731 10.584C51.6611 9.312 52.4291 8.4 54.0131 8.4C55.6451 8.4 56.4371 9.432 56.4371 10.584H51.3731ZM67.0693 18.36C68.8453 18.36 70.2853 17.544 71.0773 16.272L71.2933 18H74.6533V-1.43051e-06H71.0533V7.512C70.1893 6.264 68.8933 5.52 67.1413 5.52C63.8053 5.52 61.6693 8.328 61.6693 11.952C61.6693 15.48 63.6613 18.36 67.0693 18.36ZM68.1733 15.096C66.3013 15.096 65.2933 13.704 65.2933 11.952C65.2933 10.176 66.3013 8.784 68.1733 8.784C69.9013 8.784 71.0533 10.152 71.0533 11.928C71.0533 13.728 69.9013 15.096 68.1733 15.096ZM77.7157 18H81.3157V5.88H77.7157V18ZM77.6197 3.6H81.3637V0.24H77.6197V3.6ZM87.5874 18.36C89.5074 18.36 90.5874 17.448 91.1874 16.464L91.4274 18H94.6914V10.656C94.6914 7.272 92.8434 5.52 89.1474 5.52C85.3074 5.52 84.2754 8.016 84.2754 8.016V9.624H87.0114C87.0114 9.624 87.5154 8.52 89.0754 8.52C90.4434 8.52 91.0674 9.216 91.0674 10.536V11.064C91.0674 11.064 90.0594 10.824 88.8114 10.824C85.2834 10.824 83.6034 12.288 83.6034 14.592C83.6034 16.656 84.9234 18.36 87.5874 18.36ZM88.7634 15.576C87.7794 15.576 87.1794 15.192 87.1794 14.256C87.1794 13.488 87.6354 12.888 89.0514 12.888C90.2274 12.888 91.0674 13.08 91.0674 13.08V13.608C91.0674 14.472 90.3234 15.576 88.7634 15.576Z" fill="white"/>
</svg>
