<svg width="22" height="22" viewBox="0 0 22 22" fill="none" xmlns="http://www.w3.org/2000/svg">
<path fill-rule="evenodd" clip-rule="evenodd" d="M2.75 10.3125C2.75 6.13585 6.13585 2.75 10.3125 2.75C14.4892 2.75 17.875 6.13585 17.875 10.3125C17.875 14.4892 14.4892 17.875 10.3125 17.875C6.13585 17.875 2.75 14.4892 2.75 10.3125ZM10.3125 0.6875C4.99676 0.6875 0.6875 4.99676 0.6875 10.3125C0.6875 15.6282 4.99676 19.9375 10.3125 19.9375C12.5989 19.9375 14.6991 19.1403 16.3503 17.8087L20.5833 22.0417L22.0417 20.5833L17.8087 16.3503C19.1403 14.6991 19.9375 12.5989 19.9375 10.3125C19.9375 4.99676 15.6282 0.6875 10.3125 0.6875Z" fill="#AAABAD"/>
</svg>
